<svg width="20" height="20" viewBox="0 0 20 20" fill="none" xmlns="http://www.w3.org/2000/svg">
<g opacity="0.25">
<path d="M7.77565 9.58334H9.58398C10.5785 9.58334 11.5324 9.97843 12.2356 10.6817C12.9389 11.3849 13.334 12.3388 13.334 13.3333H7.49982L7.50065 14.1667H14.1673V13.3333C14.1647 12.4466 13.9085 11.5792 13.429 10.8333H15.834C16.6217 10.8331 17.3933 11.0562 18.0594 11.4767C18.7255 11.8972 19.2588 12.4979 19.5973 13.2092C17.6265 15.81 14.4357 17.5 10.834 17.5C8.53315 17.5 6.58398 17.0083 5.00065 16.1458V8.3925C6.0145 8.53773 6.97188 8.94858 7.77565 9.58334ZM3.33398 7.5C3.5381 7.50003 3.7351 7.57497 3.88763 7.7106C4.04016 7.84623 4.1376 8.03313 4.16148 8.23584L4.16732 8.33334V15.8333C4.16732 16.0544 4.07952 16.2663 3.92324 16.4226C3.76696 16.5789 3.555 16.6667 3.33398 16.6667H1.66732C1.4463 16.6667 1.23434 16.5789 1.07806 16.4226C0.921782 16.2663 0.833984 16.0544 0.833984 15.8333V8.33334C0.833984 8.11232 0.921782 7.90036 1.07806 7.74408C1.23434 7.5878 1.4463 7.5 1.66732 7.5H3.33398ZM11.3723 2.97917L11.6673 3.275L11.9623 2.98C12.1555 2.78519 12.3852 2.63044 12.6384 2.52465C12.8915 2.41887 13.1631 2.36412 13.4374 2.36356C13.7118 2.363 13.9835 2.41663 14.2371 2.52138C14.4907 2.62613 14.7211 2.77993 14.915 2.97396C15.109 3.16798 15.2627 3.39841 15.3674 3.65201C15.4721 3.90561 15.5257 4.17739 15.525 4.45174C15.5244 4.7261 15.4696 4.99762 15.3637 5.25073C15.2578 5.50384 15.103 5.73355 14.9082 5.92667L11.6673 9.16667L8.42565 5.925C8.23083 5.73183 8.07609 5.50208 7.9703 5.24894C7.86452 4.9958 7.80977 4.72426 7.80921 4.4499C7.80865 4.17555 7.86228 3.90379 7.96703 3.65022C8.07178 3.39664 8.22558 3.16626 8.41961 2.97229C8.61363 2.77832 8.84406 2.62458 9.09766 2.51991C9.35126 2.41523 9.62304 2.36167 9.89739 2.36231C10.1717 2.36295 10.4433 2.41777 10.6964 2.52363C10.9495 2.62949 11.1792 2.7843 11.3723 2.97917Z" fill="#163F69"/>
</g>
</svg>
