<svg width="20" height="20" viewBox="0 0 20 20" fill="none" xmlns="http://www.w3.org/2000/svg">
<g opacity="0.25">
<path d="M1.66602 18.3333C1.66602 16.5651 2.36839 14.8694 3.61864 13.6192C4.86888 12.369 6.56457 11.6666 8.33268 11.6666C10.1008 11.6666 11.7965 12.369 13.0467 13.6192C14.297 14.8694 14.9993 16.5651 14.9993 18.3333H1.66602ZM8.33268 10.8333C5.57018 10.8333 3.33268 8.59575 3.33268 5.83325C3.33268 3.07075 5.57018 0.833252 8.33268 0.833252C11.0952 0.833252 13.3327 3.07075 13.3327 5.83325C13.3327 8.59575 11.0952 10.8333 8.33268 10.8333ZM14.4685 12.6941C15.7432 13.0217 16.8821 13.7431 17.723 14.7556C18.5638 15.7681 19.0639 17.0201 19.1518 18.3333H16.666C16.666 16.1583 15.8327 14.1783 14.4685 12.6941ZM12.7827 10.7974C13.481 10.1728 14.0395 9.4077 14.4215 8.55221C14.8035 7.69671 15.0004 6.77016 14.9993 5.83325C15.0011 4.69447 14.7098 3.57439 14.1535 2.58075C15.0974 2.77041 15.9464 3.28106 16.5564 4.02592C17.1663 4.77077 17.4995 5.70386 17.4993 6.66658C17.4996 7.26031 17.3729 7.84722 17.1278 8.38798C16.8827 8.92874 16.5248 9.41087 16.0781 9.80204C15.6315 10.1932 15.1064 10.4844 14.538 10.6561C13.9697 10.8277 13.3712 10.8759 12.7827 10.7974Z" fill="#163F69"/>
</g>
</svg>
