<svg width="20" height="20" viewBox="0 0 20 20" fill="none" xmlns="http://www.w3.org/2000/svg">
<g opacity="0.75">
<path d="M4.16732 18.3334C3.9463 18.3334 3.73434 18.2456 3.57806 18.0893C3.42178 17.9331 3.33398 17.7211 3.33398 17.5001V2.50008C3.33398 2.27907 3.42178 2.06711 3.57806 1.91083C3.73434 1.75455 3.9463 1.66675 4.16732 1.66675H15.834C16.055 1.66675 16.267 1.75455 16.4232 1.91083C16.5795 2.06711 16.6673 2.27907 16.6673 2.50008V5.00008H15.0006V3.33341H5.00065V16.6667H15.0006V15.0001H16.6673V17.5001C16.6673 17.7211 16.5795 17.9331 16.4232 18.0893C16.267 18.2456 16.055 18.3334 15.834 18.3334H4.16732ZM15.0006 13.3334V10.8334H9.16732V9.16675H15.0006V6.66675L19.1673 10.0001L15.0006 13.3334Z" fill="#2D7DD2"/>
</g>
</svg>
