<svg width="128" height="48" viewBox="0 0 128 48" fill="none" xmlns="http://www.w3.org/2000/svg">
<path d="M73.3762 17.8879C75.0052 16.2559 75.8319 14.1919 75.8319 11.6719C75.8319 9.15189 75.0052 7.08789 73.3762 5.43189C71.7472 3.79989 69.6563 2.98389 67.152 2.98389C64.6477 2.98389 62.5567 3.79989 60.9277 5.43189C59.2987 7.08789 58.4721 9.15189 58.4721 11.6719C58.4721 14.1919 59.2987 16.2559 60.9277 17.8879C62.5567 19.5199 64.6477 20.3359 67.152 20.3359C69.6563 20.3359 71.7472 19.5199 73.3762 17.8879ZM67.152 17.0719C65.7175 17.0719 64.5504 16.5679 63.6508 15.5839C62.7512 14.5999 62.2893 13.2799 62.2893 11.6719C62.2893 10.0639 62.7512 8.74389 63.6508 7.73589C64.5504 6.75189 65.7175 6.24789 67.152 6.24789C68.5865 6.24789 69.7778 6.75189 70.6774 7.73589C71.577 8.74389 72.039 10.0639 72.039 11.6719C72.039 13.2799 71.577 14.5999 70.6774 15.5839C69.7778 16.5679 68.5865 17.0719 67.152 17.0719Z" fill="#163F69"/>
<path d="M81.7404 19.9999V13.3519C81.7404 11.6959 82.7616 10.7119 84.1961 10.7119C85.582 10.7119 86.2627 11.5279 86.2627 13.1359V19.9999H89.7882V12.5839C89.7882 9.60789 88.1349 7.87989 85.1929 7.87989C83.6126 7.87989 82.3969 8.52789 81.5459 9.84789V8.16789H78.2393V19.9999H81.7404Z" fill="#163F69"/>
<path d="M101.333 15.6799C100.652 16.9519 99.68 17.5999 98.4157 17.5999C96.738 17.5999 95.6196 16.5679 95.4494 14.8639H104.008C104.032 14.7199 104.032 14.4079 104.032 13.9279C104.032 12.1039 103.521 10.6399 102.476 9.53589C101.431 8.43189 99.996 7.87989 98.1725 7.87989C96.349 7.87989 94.8173 8.45589 93.6259 9.60789C92.4102 10.7839 91.8024 12.2719 91.8024 14.0959C91.8024 15.9919 92.4102 17.4799 93.6502 18.6079C94.8659 19.7359 96.4463 20.2879 98.367 20.2879C101.09 20.2879 103.011 19.2079 104.105 17.0479L101.333 15.6799ZM98.051 10.4479C99.5098 10.4479 100.312 11.2639 100.434 12.8719H95.4737C95.6926 11.3599 96.6651 10.4479 98.051 10.4479Z" fill="#163F69"/>
<path d="M65.6932 44.3359C67.7598 44.3359 69.4374 43.8319 70.7261 42.8479C71.9903 41.8639 72.6225 40.5679 72.6225 38.9599C72.6225 36.3919 71.0664 34.8559 67.3708 34.2079L65.134 33.8239C63.3591 33.5119 62.4838 32.8399 62.4838 31.8079C62.4838 30.6559 63.6022 29.9119 65.1826 29.9119C67.2979 29.9119 68.4892 30.9679 68.7567 33.0559L72.3307 32.6239C72.0633 28.9759 69.7535 26.9839 65.3041 26.9839C63.3591 26.9839 61.803 27.4639 60.636 28.3999C59.4446 29.3599 58.8611 30.5599 58.8611 31.9999C58.8611 34.6879 60.5873 36.2959 64.5018 36.9679L66.7386 37.3519C68.2704 37.6399 69.0241 38.2879 69.0241 39.2959C69.0241 40.6159 67.7841 41.4079 65.7661 41.4079C63.5293 41.4079 62.0705 40.4959 62.0705 39.0559C62.0705 38.6479 62.1434 38.2639 62.265 37.9519L58.7881 37.1599C58.5693 37.8559 58.4478 38.5519 58.4478 39.1999C58.4478 40.7119 59.0799 41.9599 60.3685 42.8959C61.6571 43.8559 63.432 44.3359 65.6932 44.3359Z" fill="#163F69"/>
<path d="M78.5113 43.9999V37.3519C78.5113 35.6959 79.5325 34.7119 80.967 34.7119C82.3528 34.7119 83.0336 35.5279 83.0336 37.1359V43.9999H86.559V36.5839C86.559 33.6079 84.9787 31.8799 82.1583 31.8799C80.5779 31.8799 79.3623 32.5279 78.5113 33.8479V27.3199H75.0102V43.9999H78.5113Z" fill="#163F69"/>
<path d="M93.2658 44.2879C94.6273 44.2879 96.0618 43.6399 96.8642 42.5599V43.9999H100.171V36.8959C100.171 33.5119 98.1771 31.8799 94.7489 31.8799C91.6368 31.8799 89.4972 33.4879 88.7921 36.0079L92.0501 36.5359C92.4148 35.2159 93.2171 34.5679 94.5057 34.5679C95.9402 34.5679 96.6453 35.2879 96.6453 36.7519V38.0239C95.77 37.2559 94.6759 36.8719 93.363 36.8719C92.0015 36.8719 90.883 37.2319 90.0078 37.9519C89.1082 38.6719 88.6705 39.5599 88.6705 40.5919C88.6705 42.8719 90.5427 44.2879 93.2658 44.2879ZM94.1654 41.9839C92.9983 41.9839 92.2203 41.4079 92.2203 40.5439C92.2203 39.7039 92.9983 39.1039 94.1654 39.1039C95.1136 39.1039 95.9402 39.4879 96.6453 40.2799V40.5199C95.9402 41.5039 95.1136 41.9839 94.1654 41.9839Z" fill="#163F69"/>
<path d="M106.458 43.9999V38.0479C106.458 36.0079 107.308 34.7359 108.451 34.7359C109.278 34.7359 109.691 35.2399 109.691 36.2719C109.691 36.6079 109.643 36.9199 109.57 37.2319L112.755 37.5679C112.974 36.8719 113.095 36.1999 113.095 35.5519C113.095 33.3439 111.685 31.9759 109.716 31.9759C108.087 31.9759 106.919 32.7439 106.263 34.3039V32.1679H102.956V43.9999H106.458Z" fill="#163F69"/>
<path d="M123.676 39.6799C122.995 40.9519 122.023 41.5999 120.758 41.5999C119.081 41.5999 117.962 40.5679 117.792 38.8639H126.35C126.375 38.7199 126.375 38.4079 126.375 37.9279C126.375 36.1039 125.864 34.6399 124.819 33.5359C123.773 32.4319 122.339 31.8799 120.515 31.8799C118.692 31.8799 117.16 32.4559 115.969 33.6079C114.753 34.7839 114.145 36.2719 114.145 38.0959C114.145 39.9919 114.753 41.4799 115.993 42.6079C117.209 43.7359 118.789 44.2879 120.71 44.2879C123.433 44.2879 125.354 43.2079 126.448 41.0479L123.676 39.6799ZM120.394 34.4479C121.853 34.4479 122.655 35.2639 122.776 36.8719H117.816C118.035 35.3599 119.008 34.4479 120.394 34.4479Z" fill="#163F69"/>
<path d="M38.8927 19.3333V22.6667C38.8927 27.4533 35.0127 31.3333 30.2261 31.3333H26.8927V44H24.2261V28.6667L24.2514 27.3333C24.5914 22.8587 28.3314 19.3333 32.8927 19.3333H38.8927ZM17.5594 14C21.6821 14 25.1807 16.6733 26.4167 20.3813C24.4167 22.0813 23.0967 24.552 22.9141 27.3333H21.5594C16.4047 27.3333 12.2261 23.1547 12.2261 18V14H17.5594Z" fill="#163F69"/>
<path fill-rule="evenodd" clip-rule="evenodd" d="M5.56006 24C5.56006 35.0457 14.5144 44 25.5601 44C36.6058 44 45.5601 35.0457 45.5601 24C45.5601 12.9543 36.6058 4 25.5601 4C14.5144 4 5.56006 12.9543 5.56006 24ZM25.5601 0C12.3052 0 1.56006 10.7452 1.56006 24C1.56006 37.2548 12.3052 48 25.5601 48C38.8149 48 49.5601 37.2548 49.5601 24C49.5601 10.7452 38.8149 0 25.5601 0Z" fill="#163F69"/>
</svg>
