<svg width="128" height="48" viewBox="0 0 128 48" fill="none" xmlns="http://www.w3.org/2000/svg">
<path d="M73.3757 17.8879C75.0047 16.2559 75.8314 14.1919 75.8314 11.6719C75.8314 9.15189 75.0047 7.08789 73.3757 5.43189C71.7467 3.79989 69.6558 2.98389 67.1515 2.98389C64.6472 2.98389 62.5562 3.79989 60.9272 5.43189C59.2982 7.08789 58.4716 9.15189 58.4716 11.6719C58.4716 14.1919 59.2982 16.2559 60.9272 17.8879C62.5562 19.5199 64.6472 20.3359 67.1515 20.3359C69.6558 20.3359 71.7467 19.5199 73.3757 17.8879ZM67.1515 17.0719C65.717 17.0719 64.5499 16.5679 63.6503 15.5839C62.7507 14.5999 62.2888 13.2799 62.2888 11.6719C62.2888 10.0639 62.7507 8.74389 63.6503 7.73589C64.5499 6.75189 65.717 6.24789 67.1515 6.24789C68.586 6.24789 69.7773 6.75189 70.6769 7.73589C71.5765 8.74389 72.0385 10.0639 72.0385 11.6719C72.0385 13.2799 71.5765 14.5999 70.6769 15.5839C69.7773 16.5679 68.586 17.0719 67.1515 17.0719Z" fill="white"/>
<path d="M81.7399 19.9999V13.3519C81.7399 11.6959 82.7611 10.7119 84.1956 10.7119C85.5815 10.7119 86.2622 11.5279 86.2622 13.1359V19.9999H89.7877V12.5839C89.7877 9.60789 88.1344 7.87989 85.1924 7.87989C83.6121 7.87989 82.3964 8.52789 81.5454 9.84789V8.16789H78.2388V19.9999H81.7399Z" fill="white"/>
<path d="M101.333 15.6799C100.652 16.9519 99.6795 17.5999 98.4152 17.5999C96.7375 17.5999 95.6191 16.5679 95.4489 14.8639H104.007C104.032 14.7199 104.032 14.4079 104.032 13.9279C104.032 12.1039 103.521 10.6399 102.476 9.53589C101.43 8.43189 99.9955 7.87989 98.172 7.87989C96.3485 7.87989 94.8168 8.45589 93.6254 9.60789C92.4097 10.7839 91.8019 12.2719 91.8019 14.0959C91.8019 15.9919 92.4097 17.4799 93.6497 18.6079C94.8654 19.7359 96.4458 20.2879 98.3665 20.2879C101.09 20.2879 103.01 19.2079 104.105 17.0479L101.333 15.6799ZM98.0505 10.4479C99.5093 10.4479 100.312 11.2639 100.433 12.8719H95.4732C95.6921 11.3599 96.6646 10.4479 98.0505 10.4479Z" fill="white"/>
<path d="M65.6927 44.3359C67.7593 44.3359 69.4369 43.8319 70.7256 42.8479C71.9899 41.8639 72.622 40.5679 72.622 38.9599C72.622 36.3919 71.066 34.8559 67.3703 34.2079L65.1335 33.8239C63.3586 33.5119 62.4833 32.8399 62.4833 31.8079C62.4833 30.6559 63.6017 29.9119 65.1821 29.9119C67.2974 29.9119 68.4887 30.9679 68.7562 33.0559L72.3302 32.6239C72.0628 28.9759 69.753 26.9839 65.3037 26.9839C63.3586 26.9839 61.8025 27.4639 60.6355 28.3999C59.4441 29.3599 58.8606 30.5599 58.8606 31.9999C58.8606 34.6879 60.5868 36.2959 64.5013 36.9679L66.7382 37.3519C68.2699 37.6399 69.0236 38.2879 69.0236 39.2959C69.0236 40.6159 67.7836 41.4079 65.7656 41.4079C63.5288 41.4079 62.07 40.4959 62.07 39.0559C62.07 38.6479 62.1429 38.2639 62.2645 37.9519L58.7877 37.1599C58.5688 37.8559 58.4473 38.5519 58.4473 39.1999C58.4473 40.7119 59.0794 41.9599 60.368 42.8959C61.6566 43.8559 63.4315 44.3359 65.6927 44.3359Z" fill="white"/>
<path d="M78.5108 43.9999V37.3519C78.5108 35.6959 79.532 34.7119 80.9665 34.7119C82.3523 34.7119 83.0331 35.5279 83.0331 37.1359V43.9999H86.5586V36.5839C86.5586 33.6079 84.9782 31.8799 82.1578 31.8799C80.5774 31.8799 79.3618 32.5279 78.5108 33.8479V27.3199H75.0097V43.9999H78.5108Z" fill="white"/>
<path d="M93.2653 44.2879C94.6268 44.2879 96.0613 43.6399 96.8637 42.5599V43.9999H100.17V36.8959C100.17 33.5119 98.1766 31.8799 94.7484 31.8799C91.6363 31.8799 89.4967 33.4879 88.7916 36.0079L92.0496 36.5359C92.4143 35.2159 93.2166 34.5679 94.5053 34.5679C95.9398 34.5679 96.6448 35.2879 96.6448 36.7519V38.0239C95.7696 37.2559 94.6755 36.8719 93.3625 36.8719C92.001 36.8719 90.8826 37.2319 90.0073 37.9519C89.1077 38.6719 88.67 39.5599 88.67 40.5919C88.67 42.8719 90.5422 44.2879 93.2653 44.2879ZM94.1649 41.9839C92.9978 41.9839 92.2198 41.4079 92.2198 40.5439C92.2198 39.7039 92.9978 39.1039 94.1649 39.1039C95.1131 39.1039 95.9398 39.4879 96.6448 40.2799V40.5199C95.9398 41.5039 95.1131 41.9839 94.1649 41.9839Z" fill="white"/>
<path d="M106.457 43.9999V38.0479C106.457 36.0079 107.308 34.7359 108.451 34.7359C109.277 34.7359 109.691 35.2399 109.691 36.2719C109.691 36.6079 109.642 36.9199 109.569 37.2319L112.754 37.5679C112.973 36.8719 113.095 36.1999 113.095 35.5519C113.095 33.3439 111.684 31.9759 109.715 31.9759C108.086 31.9759 106.919 32.7439 106.263 34.3039V32.1679H102.956V43.9999H106.457Z" fill="white"/>
<path d="M123.676 39.6799C122.995 40.9519 122.022 41.5999 120.758 41.5999C119.08 41.5999 117.962 40.5679 117.792 38.8639H126.35C126.374 38.7199 126.374 38.4079 126.374 37.9279C126.374 36.1039 125.864 34.6399 124.818 33.5359C123.773 32.4319 122.338 31.8799 120.515 31.8799C118.691 31.8799 117.16 32.4559 115.968 33.6079C114.752 34.7839 114.145 36.2719 114.145 38.0959C114.145 39.9919 114.752 41.4799 115.992 42.6079C117.208 43.7359 118.789 44.2879 120.709 44.2879C123.432 44.2879 125.353 43.2079 126.447 41.0479L123.676 39.6799ZM120.393 34.4479C121.852 34.4479 122.654 35.2639 122.776 36.8719H117.816C118.035 35.3599 119.007 34.4479 120.393 34.4479Z" fill="white"/>
<path d="M38.8923 19.3333V22.6667C38.8923 27.4533 35.0123 31.3333 30.2256 31.3333H26.8923V44H24.2256V28.6667L24.2509 27.3333C24.5909 22.8587 28.3309 19.3333 32.8923 19.3333H38.8923ZM17.5589 14C21.6816 14 25.1803 16.6733 26.4163 20.3813C24.4163 22.0813 23.0963 24.552 22.9136 27.3333H21.5589C16.4043 27.3333 12.2256 23.1547 12.2256 18V14H17.5589Z" fill="white"/>
<path fill-rule="evenodd" clip-rule="evenodd" d="M5.55957 24C5.55957 35.0457 14.5139 44 25.5596 44C36.6053 44 45.5596 35.0457 45.5596 24C45.5596 12.9543 36.6053 4 25.5596 4C14.5139 4 5.55957 12.9543 5.55957 24ZM25.5596 0C12.3047 0 1.55957 10.7452 1.55957 24C1.55957 37.2548 12.3047 48 25.5596 48C38.8144 48 49.5596 37.2548 49.5596 24C49.5596 10.7452 38.8144 0 25.5596 0Z" fill="white"/>
</svg>
