<svg width="96" height="96" viewBox="0 0 96 96" fill="none" xmlns="http://www.w3.org/2000/svg">
<path d="M47.9996 50.344L64.9716 67.312L59.3116 72.972L51.9996 65.66V88H43.9996V65.652L36.6876 72.972L31.0276 67.312L47.9996 50.344ZM47.9996 8C54.8675 8.00033 61.4958 10.5245 66.6244 15.0925C71.7529 19.6605 75.0239 25.9539 75.8156 32.776C80.7927 34.1333 85.1345 37.1964 88.0822 41.4301C91.03 45.6638 92.3962 50.7988 91.9421 55.9376C91.4879 61.0764 89.2424 65.8921 85.5978 69.5433C81.9533 73.1944 77.1415 75.4486 72.0036 75.912V67.856C73.8443 67.5931 75.6142 66.9662 77.2099 66.0119C78.8057 65.0575 80.1954 63.7949 81.2978 62.2976C82.4003 60.8004 83.1935 59.0985 83.6311 57.2914C84.0686 55.4842 84.1419 53.608 83.8464 51.7723C83.551 49.9365 82.8929 48.178 81.9104 46.5994C80.928 45.0208 79.6409 43.6537 78.1244 42.5779C76.6079 41.5021 74.8922 40.7392 73.0776 40.3336C71.263 39.9281 69.3858 39.8881 67.5556 40.216C68.182 37.2995 68.1481 34.2799 67.4564 31.3782C66.7647 28.4765 65.4327 25.7663 63.558 23.4461C61.6832 21.1259 59.3132 19.2544 56.6215 17.9688C53.9298 16.6831 50.9846 16.0159 48.0016 16.0159C45.0186 16.0159 42.0734 16.6831 39.3817 17.9688C36.69 19.2544 34.32 21.1259 32.4452 23.4461C30.5704 25.7663 29.2384 28.4765 28.5467 31.3782C27.855 34.2799 27.8211 37.2995 28.4476 40.216C24.7982 39.5307 21.026 40.3231 17.961 42.419C14.8959 44.515 12.7889 47.7426 12.1036 51.392C11.4183 55.0414 12.2107 58.8135 14.3066 61.8786C16.4025 64.9437 19.6302 67.0507 23.2796 67.736L23.9996 67.856V75.912C18.8614 75.4493 14.0492 73.1956 10.4041 69.5448C6.75902 65.8939 4.51288 61.0782 4.05827 55.9393C3.60366 50.8004 4.96949 45.6651 7.91705 41.4311C10.8646 37.1971 15.2064 34.1335 20.1836 32.776C20.9744 25.9535 24.2452 19.6596 29.3739 15.0915C34.5026 10.5233 41.1314 7.99945 47.9996 8Z" fill="#040D15" fill-opacity="0.25"/>
</svg>
