<svg width="48" height="48" viewBox="0 0 48 48" fill="none" xmlns="http://www.w3.org/2000/svg">
<circle cx="24" cy="24" r="24" fill="#040D15" fill-opacity="0.05"/>
<path d="M21.33 23.5H23.5C24.6935 23.5 25.8381 23.9741 26.682 24.818C27.5259 25.6619 28 26.8065 28 28H20.999L21 29H29V28C28.9968 26.9359 28.6894 25.895 28.114 25H31C31.9453 24.9997 32.8712 25.2674 33.6705 25.772C34.4698 26.2766 35.1097 26.9975 35.516 27.851C33.151 30.972 29.322 33 25 33C22.239 33 19.9 32.41 18 31.375V22.071C19.2166 22.2452 20.3655 22.7382 21.33 23.5ZM16 21C16.2449 21 16.4813 21.0899 16.6644 21.2527C16.8474 21.4154 16.9643 21.6397 16.993 21.883L17 22V31C17 31.2652 16.8946 31.5195 16.7071 31.7071C16.5196 31.8946 16.2652 32 16 32H14C13.7348 32 13.4804 31.8946 13.2929 31.7071C13.1054 31.5195 13 31.2652 13 31V22C13 21.7347 13.1054 21.4804 13.2929 21.2929C13.4804 21.1053 13.7348 21 14 21H16ZM25.646 15.575L26 15.93L26.354 15.576C26.5858 15.3422 26.8615 15.1565 27.1653 15.0295C27.469 14.9026 27.7949 14.8369 28.1241 14.8362C28.4533 14.8356 28.7795 14.8999 29.0837 15.0256C29.388 15.1513 29.6645 15.3359 29.8973 15.5687C30.13 15.8015 30.3145 16.078 30.4401 16.3824C30.5657 16.6867 30.63 17.0128 30.6292 17.342C30.6285 17.6713 30.5627 17.9971 30.4356 18.3008C30.3086 18.6046 30.1228 18.8802 29.889 19.112L26 23L22.11 19.11C21.8762 18.8781 21.6905 18.6024 21.5636 18.2987C21.4366 17.9949 21.3709 17.6691 21.3703 17.3398C21.3696 17.0106 21.434 16.6845 21.5597 16.3802C21.6854 16.0759 21.8699 15.7995 22.1027 15.5667C22.3356 15.3339 22.6121 15.1495 22.9164 15.0238C23.2207 14.8982 23.5469 14.834 23.8761 14.8347C24.2053 14.8355 24.5311 14.9013 24.8349 15.0283C25.1386 15.1553 25.4143 15.3411 25.646 15.575Z" fill="#163F69"/>
</svg>
