<svg width="48" height="48" viewBox="0 0 48 48" fill="none" xmlns="http://www.w3.org/2000/svg">
<circle cx="24" cy="24" r="24" fill="#040D15" fill-opacity="0.05"/>
<path d="M14 34C14 31.8783 14.8429 29.8434 16.3431 28.3431C17.8434 26.8429 19.8783 26 22 26C24.1217 26 26.1566 26.8429 27.6569 28.3431C29.1571 29.8434 30 31.8783 30 34H14ZM22 25C18.685 25 16 22.315 16 19C16 15.685 18.685 13 22 13C25.315 13 28 15.685 28 19C28 22.315 25.315 25 22 25ZM29.363 27.233C30.8926 27.6261 32.2593 28.4918 33.2683 29.7068C34.2774 30.9218 34.8774 32.4242 34.983 34H32C32 31.39 31 29.014 29.363 27.233ZM27.34 24.957C28.178 24.2075 28.8482 23.2893 29.3066 22.2627C29.765 21.2362 30.0013 20.1243 30 19C30.0021 17.6335 29.6526 16.2894 28.985 15.097C30.1176 15.3246 31.1365 15.9374 31.8685 16.8312C32.6004 17.725 33.0002 18.8447 33 20C33.0003 20.7125 32.8482 21.4168 32.5541 22.0657C32.26 22.7146 31.8305 23.2931 31.2946 23.7625C30.7586 24.2319 30.1285 24.5814 29.4464 24.7874C28.7644 24.9934 28.0462 25.0512 27.34 24.957Z" fill="#163F69"/>
</svg>
