<svg width="20" height="20" viewBox="0 0 20 20" fill="none" xmlns="http://www.w3.org/2000/svg">
<path opacity="0.25" d="M10.0003 18.3333C5.39783 18.3333 1.66699 14.6025 1.66699 9.99996C1.66699 5.39746 5.39783 1.66663 10.0003 1.66663C14.6028 1.66663 18.3337 5.39746 18.3337 9.99996C18.3337 14.6025 14.6028 18.3333 10.0003 18.3333ZM9.16699 12.5V14.1666H10.8337V12.5H9.16699ZM10.8337 11.1291C11.5034 10.9273 12.0783 10.4916 12.4538 9.90141C12.8292 9.31124 12.9802 8.60584 12.8793 7.91368C12.7783 7.22153 12.4321 6.58866 11.9037 6.13034C11.3753 5.67202 10.6998 5.41874 10.0003 5.41663C9.32604 5.41657 8.67255 5.65009 8.15099 6.07745C7.62943 6.50482 7.272 7.09965 7.13949 7.76079L8.77449 8.08829C8.82089 7.85615 8.93226 7.64196 9.09563 7.47064C9.25901 7.29932 9.46767 7.17791 9.69735 7.12055C9.92702 7.06318 10.1683 7.07222 10.393 7.1466C10.6178 7.22098 10.8168 7.35766 10.9669 7.54072C11.117 7.72378 11.212 7.9457 11.2409 8.18066C11.2698 8.41562 11.2314 8.65396 11.1301 8.86795C11.0289 9.08193 10.8689 9.26276 10.6689 9.3894C10.4689 9.51604 10.2371 9.58328 10.0003 9.58329C9.77931 9.58329 9.56735 9.67109 9.41107 9.82737C9.25479 9.98365 9.16699 10.1956 9.16699 10.4166V11.6666H10.8337V11.1291Z" fill="#163F69"/>
</svg>
