<svg width="56" height="56" viewBox="0 0 56 56" fill="none" xmlns="http://www.w3.org/2000/svg">
<circle cx="32" cy="24" r="24" fill="#F46036" fill-opacity="0.1"/>
<path d="M15.55 35.1667H19.1667C21.1558 35.1667 23.0635 35.9569 24.47 37.3634C25.8765 38.7699 26.6667 40.6776 26.6667 42.6667H14.9984L15 44.3333H28.3334V42.6667C28.3281 40.8933 27.8157 39.1584 26.8567 37.6667H31.6667C33.2421 37.6662 34.7854 38.1124 36.1176 38.9534C37.4498 39.7944 38.5162 40.9958 39.1934 42.4183C35.2517 47.62 28.87 51 21.6667 51C17.065 51 13.1667 50.0167 10 48.2917V32.785C12.0277 33.0755 13.9425 33.8972 15.55 35.1667ZM6.66669 31C7.07491 31.0001 7.46892 31.1499 7.77397 31.4212C8.07903 31.6925 8.27393 32.0663 8.32169 32.4717L8.33335 32.6667V47.6667C8.33335 48.1087 8.15776 48.5326 7.8452 48.8452C7.53264 49.1578 7.10871 49.3333 6.66669 49.3333H3.33335C2.89133 49.3333 2.4674 49.1578 2.15484 48.8452C1.84228 48.5326 1.66669 48.1087 1.66669 47.6667V32.6667C1.66669 32.2246 1.84228 31.8007 2.15484 31.4882C2.4674 31.1756 2.89133 31 3.33335 31H6.66669ZM22.7434 21.9583L23.3334 22.55L23.9234 21.96C24.3097 21.5704 24.7692 21.2609 25.2755 21.0493C25.7818 20.8377 26.3248 20.7282 26.8736 20.7271C27.4223 20.726 27.9658 20.8333 28.4729 21.0428C28.9801 21.2523 29.4408 21.5599 29.8288 21.9479C30.2167 22.336 30.5242 22.7968 30.7336 23.304C30.9429 23.8112 31.05 24.3548 31.0487 24.9035C31.0475 25.4522 30.9378 25.9952 30.7261 26.5015C30.5144 27.0077 30.2048 27.4671 29.815 27.8533L23.3334 34.3333L16.85 27.85C16.4604 27.4637 16.1509 27.0042 15.9393 26.4979C15.7277 25.9916 15.6183 25.4485 15.6171 24.8998C15.616 24.3511 15.7233 23.8076 15.9328 23.3004C16.1423 22.7933 16.4499 22.3325 16.8379 21.9446C17.226 21.5566 17.6868 21.2492 18.194 21.0398C18.7012 20.8305 19.2448 20.7233 19.7935 20.7246C20.3422 20.7259 20.8853 20.8355 21.3915 21.0473C21.8977 21.259 22.3571 21.5686 22.7434 21.9583Z" fill="#F46036"/>
</svg>
