<svg width="48" height="48" viewBox="0 0 48 48" fill="none" xmlns="http://www.w3.org/2000/svg">
<circle cx="24" cy="24" r="24" fill="#040D15" fill-opacity="0.05"/>
<path d="M24 23C25.3261 23 26.5979 23.5268 27.5355 24.4645C28.4732 25.4021 29 26.6739 29 28V34H19V28C19 26.6739 19.5268 25.4021 20.4645 24.4645C21.4021 23.5268 22.6739 23 24 23ZM17.288 26.006C17.1289 26.5428 17.0348 27.0968 17.008 27.656L17 28V34H14V29.5C13.9998 28.6376 14.318 27.8054 14.8936 27.1632C15.4692 26.521 16.2617 26.1139 17.119 26.02L17.289 26.006H17.288ZM30.712 26.006C31.6019 26.0602 32.4376 26.452 33.0486 27.1012C33.6596 27.7505 33.9999 28.6084 34 29.5V34H31V28C31 27.307 30.9 26.638 30.712 26.006ZM17.5 20C18.163 20 18.7989 20.2634 19.2678 20.7322C19.7366 21.2011 20 21.837 20 22.5C20 23.163 19.7366 23.7989 19.2678 24.2678C18.7989 24.7366 18.163 25 17.5 25C16.837 25 16.2011 24.7366 15.7322 24.2678C15.2634 23.7989 15 23.163 15 22.5C15 21.837 15.2634 21.2011 15.7322 20.7322C16.2011 20.2634 16.837 20 17.5 20ZM30.5 20C31.163 20 31.7989 20.2634 32.2678 20.7322C32.7366 21.2011 33 21.837 33 22.5C33 23.163 32.7366 23.7989 32.2678 24.2678C31.7989 24.7366 31.163 25 30.5 25C29.837 25 29.2011 24.7366 28.7322 24.2678C28.2634 23.7989 28 23.163 28 22.5C28 21.837 28.2634 21.2011 28.7322 20.7322C29.2011 20.2634 29.837 20 30.5 20ZM24 14C25.0609 14 26.0783 14.4214 26.8284 15.1716C27.5786 15.9217 28 16.9391 28 18C28 19.0609 27.5786 20.0783 26.8284 20.8284C26.0783 21.5786 25.0609 22 24 22C22.9391 22 21.9217 21.5786 21.1716 20.8284C20.4214 20.0783 20 19.0609 20 18C20 16.9391 20.4214 15.9217 21.1716 15.1716C21.9217 14.4214 22.9391 14 24 14Z" fill="#163F69"/>
</svg>
