<svg width="496" height="372" viewBox="0 0 496 372" fill="none" xmlns="http://www.w3.org/2000/svg">
<mask id="mask0" mask-type="alpha" maskUnits="userSpaceOnUse" x="0" y="0" width="496" height="372">
<rect width="496" height="372" fill="#C4C4C4"/>
</mask>
<g mask="url(#mask0)">
<path d="M89.8379 473.403H290.018L290.018 56.7128H89.8379L89.8379 473.403Z" stroke="#263238" stroke-width="1.05093" stroke-miterlimit="10"/>
<path d="M105.019 42.7456C160.136 33.7833 216.327 33.6425 271.488 42.3285L297.337 46.3986V473.555H285.304V59.304H92.0001V473.555H78.6396V46.3986L105.019 42.7456Z" stroke="#263238" stroke-width="1.05093" stroke-miterlimit="10"/>
<path d="M114.323 456.213H265.535L265.535 76.4691H114.323L114.323 456.213Z" stroke="#263238" stroke-width="1.05093" stroke-miterlimit="10"/>
<path d="M131.07 429.58H248.773L248.773 311.017H131.07V429.58Z" stroke="#263238" stroke-width="1.05093" stroke-miterlimit="10"/>
<path d="M248.786 104.821H204.104V292.98H248.786V104.821Z" stroke="#263238" stroke-width="1.05093" stroke-linecap="round" stroke-linejoin="round"/>
<path d="M175.765 104.821H131.083V292.98H175.765V104.821Z" stroke="#263238" stroke-width="1.05093" stroke-linecap="round" stroke-linejoin="round"/>
<path d="M145.568 414.968H234.275V325.616H145.568V414.968Z" stroke="#263238" stroke-width="1.05093" stroke-miterlimit="10"/>
<path d="M111.289 220.805C110.619 220.805 109.976 221.072 109.501 221.546C109.027 222.02 108.761 222.663 108.761 223.333V240.056H93.4287V245.858H108.71V321.698H93.4287V327.512H108.71V345.398C108.71 346.082 108.982 346.738 109.466 347.221C109.949 347.705 110.605 347.976 111.289 347.976C111.973 347.976 112.629 347.705 113.112 347.221C113.596 346.738 113.868 346.082 113.868 345.398V223.384C113.874 223.043 113.812 222.705 113.685 222.389C113.558 222.073 113.368 221.786 113.128 221.545C112.887 221.304 112.6 221.115 112.284 220.988C111.968 220.86 111.63 220.798 111.289 220.805Z" stroke="#263238" stroke-width="1.05093" stroke-linecap="round" stroke-linejoin="round"/>
<path d="M102.668 279.935H94.3008V295.9H102.668V279.935Z" stroke="#263238" stroke-width="1.05093" stroke-linecap="round" stroke-linejoin="round"/>
<path d="M394.715 473.302V-6.9043" stroke="#263238" stroke-width="1.05093" stroke-linecap="round" stroke-linejoin="round"/>
<path d="M314.829 260.849L310.178 296.266L311.947 374.192L311.505 448.148H327.646L336.747 371.98L342.056 304.672H345.595L354.456 375.076L364.644 447.251H380.583L378.371 370.21L374.819 282.981L369.51 259.509L314.829 260.849Z" fill="#263238" stroke="#263238" stroke-width="1.05093" stroke-linecap="round" stroke-linejoin="round"/>
<path d="M309.47 178.638C309.47 178.638 301.267 181.166 299.864 184.566C298.46 187.967 288.841 243.848 289.183 247.855C289.524 251.862 296.248 256.324 300.483 253.505C304.717 250.686 312.074 219.377 312.074 219.377" fill="white"/>
<path d="M309.47 178.638C309.47 178.638 301.267 181.166 299.864 184.566C298.46 187.967 288.841 243.848 289.183 247.855C289.524 251.862 296.248 256.324 300.483 253.505C304.717 250.686 312.074 219.377 312.074 219.377" stroke="#263238" stroke-width="1.05093" stroke-linecap="round" stroke-linejoin="round"/>
<path d="M292.406 224.661C290.497 236.264 289.006 246.262 289.119 247.855C289.41 251.811 296.185 256.324 300.42 253.505C302.846 251.887 306.297 240.928 308.787 231.84L292.406 224.661Z" fill="white" stroke="#263238" stroke-width="1.05093" stroke-linecap="round" stroke-linejoin="round"/>
<path d="M289.879 241.699C289.879 241.699 289.032 249.094 288.463 255.072C287.894 261.051 295.288 298.048 295.288 298.048L303.53 298.617C303.53 298.617 304.351 269.28 304.351 262.808C304.351 256.336 304.92 243.191 304.92 243.191" fill="white"/>
<path d="M289.879 241.699C289.879 241.699 289.032 249.094 288.463 255.072C287.894 261.051 295.288 298.048 295.288 298.048L303.53 298.617C303.53 298.617 304.351 269.28 304.351 262.808C304.351 256.336 304.92 243.191 304.92 243.191" stroke="#263238" stroke-width="1.05093" stroke-linecap="round" stroke-linejoin="round"/>
<path d="M305.513 294.876C305.513 294.876 297.272 294.016 295.287 294.876C294.301 295.267 293.35 295.741 292.443 296.291L294.428 299.995C294.266 300.745 294.266 301.52 294.428 302.27C294.708 303.154 295.09 304.002 295.565 304.798C294.933 307.719 294.46 310.673 294.15 313.646C294.15 315.643 293.29 318.765 294.428 320.194C295.565 321.622 301.532 323.316 301.532 323.316C301.886 323.39 302.253 323.378 302.601 323.279C302.949 323.18 303.267 322.997 303.529 322.747C304.376 321.9 306.651 322.469 308.585 319.903C310.519 317.337 311.113 316.781 311.113 315.074C311.113 313.368 307.131 304.836 307.131 304.836C307.131 304.836 309.128 302.852 307.7 301.423C306.272 299.995 304.578 300.286 304.578 299.439C304.736 298.458 305.021 297.502 305.425 296.595L305.513 294.876Z" fill="#F46036" stroke="#263238" stroke-width="1.05093" stroke-linecap="round" stroke-linejoin="round"/>
<path d="M309.218 315.062L304.945 317.046" stroke="#263238" stroke-width="1.05093" stroke-linecap="round" stroke-linejoin="round"/>
<path d="M307.79 316.477C307.79 316.477 308.359 319.321 307.512 320.459L307.79 316.477Z" fill="white"/>
<path d="M307.79 316.477C307.79 316.477 308.359 319.321 307.512 320.459" stroke="#263238" stroke-width="1.05093" stroke-linecap="round" stroke-linejoin="round"/>
<path d="M308.004 214.081C310.671 234.305 313.906 261.519 315.398 262.821C317.661 264.805 365.958 264.805 367.942 263.389C369.072 262.525 369.989 261.414 370.624 260.141C371.259 258.868 371.596 257.468 371.608 256.046C371.608 252.936 384.046 195.588 384.893 191.354C385.74 187.12 387.143 184.288 384.046 181.47C380.949 178.651 366.287 169.032 357.439 166.491C348.591 163.951 333.991 168.754 333.991 168.754C333.991 168.754 319.013 174.404 311.96 177.223C309.931 177.987 308.096 179.191 306.588 180.749" fill="white"/>
<path d="M308.004 214.081C310.671 234.305 313.906 261.519 315.398 262.821C317.661 264.805 365.958 264.805 367.942 263.389C369.072 262.525 369.989 261.414 370.624 260.141C371.259 258.868 371.596 257.468 371.608 256.046C371.608 252.936 384.046 195.588 384.893 191.354C385.74 187.12 387.143 184.288 384.046 181.47C380.949 178.651 366.287 169.032 357.439 166.491C348.591 163.951 333.991 168.754 333.991 168.754C333.991 168.754 319.013 174.404 311.96 177.223C309.931 177.987 308.096 179.191 306.588 180.749" stroke="#263238" stroke-width="1.05093" stroke-linecap="round" stroke-linejoin="round"/>
<path d="M350.701 216.773H336.014V239.942H350.701V216.773Z" fill="#F46036" stroke="#263238" stroke-width="1.05093" stroke-linecap="round" stroke-linejoin="round"/>
<path d="M333.195 181.47L343.307 217.064L356.301 179.207C356.301 179.207 351.789 172.141 346.189 171.623C340.59 171.105 335.167 176.376 333.195 181.47Z" fill="white" stroke="#263238" stroke-width="1.05093" stroke-linecap="round" stroke-linejoin="round"/>
<path d="M340.54 161.979C340.54 161.979 332.35 163.382 331.212 166.782C330.074 170.182 329.809 183.72 329.518 187.12C329.228 190.52 326.131 192.479 327.546 192.479C328.962 192.479 330.074 190.507 333.475 188.523C336.524 186.828 339.888 185.774 343.359 185.426C345.053 185.426 351.272 185.982 354.381 188.523C357.491 191.063 358.906 192.77 360.6 191.632C362.294 190.495 359.184 189.104 359.462 186.273C359.741 183.441 362.294 173.835 361.156 167.629C360.019 161.423 349.856 160.563 347.328 160.563C345.016 160.758 342.737 161.233 340.54 161.979Z" fill="white" stroke="#263238" stroke-width="1.05093" stroke-linecap="round" stroke-linejoin="round"/>
<path d="M336.014 159.425C336.014 159.425 336.014 171.016 337.707 176.098C339.401 181.179 342.511 191.632 344.773 190.785C347.036 189.938 354.658 175.251 355.505 172.432C356.351 169.613 356.642 156 356.642 156C356.642 156 345.342 161.979 336.014 159.425Z" fill="white" stroke="#263238" stroke-width="1.05093" stroke-linecap="round" stroke-linejoin="round"/>
<path d="M363.417 134.853C363.417 134.853 364.833 141.919 362.848 144.738C360.864 147.556 358.905 146.722 358.905 146.722C358.905 146.722 358.058 156.329 354.948 159.425C351.839 162.522 343.648 167.338 339.123 165.075C334.598 162.813 331.211 154.635 330.364 149.541C329.517 144.447 328.67 135.7 328.67 135.7C328.67 135.7 332.057 131.466 339.97 130.897C344.741 130.471 349.494 131.887 353.255 134.853C354.658 135.7 358.905 133.159 360.839 133.159C361.391 133.138 361.937 133.29 362.399 133.593C362.862 133.897 363.218 134.337 363.417 134.853Z" fill="white" stroke="#263238" stroke-width="1.05093" stroke-linecap="round" stroke-linejoin="round"/>
<path d="M352.965 154.635C351.549 153.497 352.118 147.278 352.965 145.029C353.812 142.779 357.49 141.919 357.49 141.919C357.49 141.919 346.759 140.503 340.818 139.935C336.901 139.714 332.982 140.34 329.328 141.767C329.619 144.371 329.998 147.304 330.365 149.541C331.211 154.597 334.612 162.826 339.124 165.076C343.08 167.06 349.868 163.622 353.572 160.652C354.634 159.493 355.566 158.221 356.352 156.86C357.768 154.332 358.615 147.822 358.615 147.822C358.615 147.822 354.381 155.76 352.965 154.635Z" fill="#F46036" stroke="#263238" stroke-width="1.05093" stroke-linecap="round" stroke-linejoin="round"/>
<path d="M336.166 138.102C336.166 139.024 335.597 139.783 334.902 139.783C334.515 139.72 334.167 139.51 333.931 139.197C333.696 138.884 333.591 138.491 333.638 138.102C333.638 137.166 334.207 136.408 334.902 136.408C335.597 136.408 336.166 137.166 336.166 138.102Z" fill="#263238"/>
<path d="M346.784 138.266C346.784 139.201 346.228 139.947 345.52 139.947C344.812 139.947 344.256 139.201 344.256 138.266C344.256 137.331 344.825 136.585 345.52 136.585C346.215 136.585 346.784 137.331 346.784 138.266Z" fill="#263238"/>
<path d="M354.658 135.7C354.658 135.7 356.643 143.284 357.49 141.919C358.336 140.554 359.183 135.131 359.183 135.131L354.658 135.7Z" fill="#263238" stroke="#263238" stroke-width="1.05093" stroke-linecap="round" stroke-linejoin="round"/>
<path d="M329.239 132.313C329.239 132.313 328.393 121.859 328.393 117.903C328.393 113.947 335.736 108.019 344.825 108.019C353.913 108.019 362.521 113.808 363.19 114.794C365.061 117.852 363.469 134.853 363.469 134.853L357.25 137.116C357.25 137.116 349.906 130.619 345.393 130.05C340.881 129.481 329.239 132.313 329.239 132.313Z" fill="#263238" stroke="#263238" stroke-width="1.05093" stroke-linecap="round" stroke-linejoin="round"/>
<path d="M327.255 132.616C327.255 132.616 336.861 126.688 344.496 128.382C352.131 130.075 357.199 137.141 357.199 137.141C357.199 137.141 355.796 139.404 350.993 138.835C346.19 138.266 345.052 133.779 340.262 134.31C335.471 134.841 330.364 138.557 327.255 138.557C324.146 138.557 327.255 132.616 327.255 132.616Z" fill="#263238" stroke="#263238" stroke-width="1.05093" stroke-linecap="round" stroke-linejoin="round"/>
<path d="M330.895 130.505C330.895 130.505 340.501 122.213 354.481 133.122" stroke="#6B6B6B" stroke-width="1.05093" stroke-linecap="round" stroke-linejoin="round"/>
<path d="M385.246 182.291C385.246 182.291 389.279 186.74 390.227 190.823C391.175 194.906 402.058 238.552 401.173 241.282C400.288 244.012 392.161 247.918 387.989 247.16C383.818 246.401 373.289 219.352 373.289 219.352" fill="white"/>
<path d="M385.246 182.291C385.246 182.291 389.279 186.74 390.227 190.823C391.175 194.906 402.058 238.552 401.173 241.282C400.288 244.012 392.161 247.918 387.989 247.16C383.818 246.401 373.289 219.352 373.289 219.352" stroke="#263238" stroke-width="1.05093" stroke-linecap="round" stroke-linejoin="round"/>
<path d="M401.137 241.32C401.541 240.056 399.456 230.121 396.991 219.377L377.475 229.489C380.875 237.275 385.501 246.755 387.953 247.185C392.124 247.918 400.252 244.025 401.137 241.32Z" fill="white" stroke="#263238" stroke-width="1.05093" stroke-linecap="round" stroke-linejoin="round"/>
<path d="M385.247 236.605L362.697 264.413L366.224 270.733C366.224 270.733 384.185 258.03 390.101 253.593C396.016 249.157 400.908 243.747 401.325 240.107C401.53 237.723 401.126 235.326 400.15 233.142" fill="white"/>
<path d="M385.247 236.605L362.697 264.413L366.224 270.733C366.224 270.733 384.185 258.03 390.101 253.593C396.016 249.157 400.908 243.747 401.325 240.107C401.53 237.723 401.126 235.326 400.15 233.142" stroke="#263238" stroke-width="1.05093" stroke-linecap="round" stroke-linejoin="round"/>
<path d="M363.583 275.903C363.583 275.903 365.681 275.006 366.578 274.551C367.476 274.096 367.021 273.173 367.754 271.833C368.487 270.493 370.686 271.037 371.129 269.672C371.571 268.306 368.967 263.731 365.984 262.53C363.001 261.329 361.308 261.14 361.206 261.986C360.986 262.768 360.612 263.499 360.107 264.135L357.579 266.663L356.441 269.09C356.441 269.09 346.418 272.2 343.194 272.971C339.971 273.742 347.821 279.758 350.778 280.959C353.736 282.16 356.201 283.285 357.389 282.855C358.577 282.425 363.583 275.903 363.583 275.903Z" fill="#F46036" stroke="#263238" stroke-width="1.05093" stroke-linecap="round" stroke-linejoin="round"/>
<path d="M331.413 263.946L354.544 280.264L322.198 301.84L299.914 283.045L331.413 263.946Z" fill="white" stroke="#263238" stroke-width="1.05093" stroke-linecap="round" stroke-linejoin="round"/>
<path d="M336.457 268.686L338.391 267.573L346.443 273.122L343.94 274.235L336.457 268.686Z" fill="white" stroke="#263238" stroke-width="1.05093" stroke-linecap="round" stroke-linejoin="round"/>
<path d="M332.565 266.739L305.654 282.274L322.579 296.43L350.046 279.505L332.565 266.739Z" fill="white" stroke="#263238" stroke-width="1.05093" stroke-linecap="round" stroke-linejoin="round"/>
<path d="M358.173 271.011C358.173 271.011 352.106 266.903 349.768 267.485C347.429 268.066 343.536 272.174 343.157 272.983C342.778 273.792 338.354 275.271 338.531 276.143C338.708 277.015 341.741 277.925 343.485 277.559C345.23 277.192 352.333 274.323 352.333 274.323" fill="#F46036"/>
<path d="M358.173 271.011C358.173 271.011 352.106 266.903 349.768 267.485C347.429 268.066 343.536 272.174 343.157 272.983C342.778 273.792 338.354 275.271 338.531 276.143C338.708 277.015 341.741 277.925 343.485 277.559C345.23 277.192 352.333 274.323 352.333 274.323" stroke="#263238" stroke-width="1.05093" stroke-linecap="round" stroke-linejoin="round"/>
<path d="M479.328 270.759H368.627V473.555H479.328V270.759Z" fill="#F46036" stroke="#263238" stroke-width="1.05093" stroke-linecap="round" stroke-linejoin="round"/>
<path d="M433.281 305.557H378.373V370.21H433.281V305.557Z" fill="white"/>
<path d="M431.284 270.759H416.672V282.274H431.284V270.759Z" fill="white" stroke="#263238" stroke-width="1.05093" stroke-linecap="round" stroke-linejoin="round"/>
<path d="M413.158 332.745L405.991 317.223L398.824 332.745H403.021V357.279H408.962V332.745H413.158Z" fill="#263238"/>
<path d="M430.955 332.745L423.788 317.223L416.621 332.745H420.818V357.279H426.758V332.745H430.955Z" fill="#263238"/>
<path d="M382.493 317.729H395.664V334.679C395.664 336.124 395.09 337.51 394.068 338.531C393.047 339.553 391.661 340.127 390.216 340.127H387.928C386.483 340.127 385.098 339.553 384.076 338.531C383.054 337.51 382.48 336.124 382.48 334.679V317.729H382.493Z" fill="#263238"/>
<path d="M390.064 334.515H388.092V356.281H390.064V334.515Z" fill="#263238"/>
<path d="M395.007 353.98H383.15V356.938H395.007V353.98Z" fill="#263238"/>
<path d="M235.83 150.995C235.83 150.995 234.414 160.879 226.223 163.988C218.033 167.098 195.432 178.676 194.623 188.573C193.814 198.47 206.492 208.911 199.427 215.408C192.361 221.905 181.591 229.249 183.563 242.584C185.535 255.919 199.098 264.337 211.245 262.366C223.392 260.394 227.917 256.994 231.873 244.847C235.83 232.7 229.345 217.165 231.873 211.224C234.401 205.283 240.911 203.033 239.786 193.149C238.661 183.264 231.027 175.921 232.998 168.577C233.955 164.552 235.789 160.788 238.37 157.555L235.83 150.995Z" fill="#263238" stroke="#263238" stroke-width="1.05093" stroke-linecap="round" stroke-linejoin="round"/>
<path d="M207.403 242.685C206.944 243.318 206.62 244.038 206.451 244.801C206.281 245.564 206.27 246.354 206.417 247.122" stroke="#6B6B6B" stroke-width="1.05093" stroke-linecap="round" stroke-linejoin="round"/>
<path d="M208.59 182.468C202.712 186.601 199.856 191.19 202.485 195.588C206.416 202.136 219.081 213.487 205.544 220.868C192.006 228.25 185.016 251.053 199.439 258.472C213.861 265.892 221.28 249.738 218.664 242.748C218.302 241.671 217.587 240.747 216.636 240.125C215.684 239.504 214.55 239.221 213.418 239.323" stroke="#6B6B6B" stroke-width="1.05093" stroke-linecap="round" stroke-linejoin="round"/>
<path d="M230.445 166.327C230.445 166.327 231.317 171.56 219.069 176.805C217.805 177.349 216.541 177.93 215.34 178.512" stroke="#6B6B6B" stroke-width="1.05093" stroke-linecap="round" stroke-linejoin="round"/>
<path d="M231.317 173.304C231.317 173.304 231.747 180.736 225.642 183.795C219.537 186.854 216.023 197.333 220.396 201.694" stroke="#6B6B6B" stroke-width="1.05093" stroke-linecap="round" stroke-linejoin="round"/>
<path d="M271.171 305.784C271.171 305.784 271.93 315.226 270.805 334.085C269.68 352.944 260.238 382.016 259.859 386.162C259.479 390.308 254.954 403.858 254.575 413.704C254.196 423.551 248.571 440.678 248.179 442.524C247.484 445.81 245.019 456.428 245.019 456.428C245.019 456.428 253.286 463.746 256.307 466.009C259.328 468.271 266.28 469.725 264.763 472.86C264.169 474.124 234.199 471.343 234.199 471.343C234.199 471.343 231.937 466.438 233.062 462.659C234.037 458.953 234.792 455.192 235.324 451.397C235.703 449.134 235.703 434.788 235.703 426.483C235.703 418.179 234.579 407.245 236.462 398.941C238.177 392.467 240.448 386.153 243.25 380.069C243.25 380.069 245.146 371.777 244.008 354.41C242.87 337.043 237.966 310.271 237.966 310.271C237.966 310.271 262.121 311.409 271.171 305.784Z" fill="white" stroke="#263238" stroke-width="1.05093" stroke-linecap="round" stroke-linejoin="round"/>
<path d="M251.263 431.084C252.818 425.346 254.423 418.583 254.613 413.666C254.992 403.858 259.517 390.27 259.897 386.124C260.276 381.978 269.705 352.919 270.843 334.047C271.98 315.176 271.209 305.746 271.209 305.746C262.159 311.409 238.004 310.284 238.004 310.284C238.004 310.284 242.908 337.068 244.046 354.423C245.184 371.777 243.288 380.082 243.288 380.082C240.487 386.165 238.216 392.479 236.5 398.953C234.617 407.258 235.742 418.204 235.742 426.496V431.021C240.839 432.26 246.156 432.281 251.263 431.084Z" fill="#263238" stroke="#263238" stroke-width="1.05093" stroke-linecap="round" stroke-linejoin="round"/>
<path d="M216.844 307.642C216.844 307.642 218.348 322.355 224.011 334.047C229.674 345.739 246.649 376.694 246.649 376.694C246.649 376.694 231.178 393.291 228.511 402.733C225.844 412.175 217.565 440.084 215.681 444.609C213.798 449.134 205.872 454.051 208.514 457.818C211.156 461.585 220.206 466.502 224.365 469.902C228.523 473.302 236.815 474.048 238.699 473.289C240.582 472.531 236.436 469.497 234.173 466.502C231.911 463.506 226.248 453.293 226.248 451.409V447.251C226.248 447.251 259.112 396.312 261.337 390.649C263.561 384.986 266.241 379.715 265.862 376.315C265.483 372.915 254.549 307.263 254.549 307.263L216.844 307.642Z" fill="white" stroke="#263238" stroke-width="1.05093" stroke-linecap="round" stroke-linejoin="round"/>
<path d="M265.887 376.315C265.52 372.915 254.574 307.263 254.574 307.263L216.844 307.642C216.844 307.642 218.348 322.355 224.011 334.047C229.673 345.739 246.649 376.694 246.649 376.694C246.649 376.694 231.178 393.291 228.51 402.733C227.246 407.132 224.807 415.562 222.342 423.766C226.273 427.435 230.933 430.235 236.019 431.982C245.89 416.485 259.883 394.277 261.299 390.649C263.624 384.999 266.266 379.715 265.887 376.315Z" fill="#263238" stroke="#263238" stroke-width="1.05093" stroke-linecap="round" stroke-linejoin="round"/>
<path d="M256.977 194.122C256.977 194.122 266.722 208.974 269.149 215.307C271.576 221.639 275.734 235.531 274.748 240.89C273.763 246.25 265.736 259.635 265.736 262.378C265.736 265.121 273.32 305.253 273.32 305.253C273.32 305.253 273.08 308.906 261.135 312.559C249.19 316.212 236.057 314.986 227.007 313.292C217.957 311.598 214.367 307.933 214.367 307.933C214.367 307.933 229.459 257.752 229.459 255.565C229.459 253.379 223.86 227.555 221.875 221.222C219.891 214.89 219.436 211.237 223.139 206.054C226.843 200.872 243.111 195.095 247.016 192.909C250.922 190.722 255.751 190.962 256.977 194.122Z" fill="white" stroke="#263238" stroke-width="1.05093" stroke-linecap="round" stroke-linejoin="round"/>
<path d="M255.75 187.056C255.75 187.056 261.11 192.656 263.334 194.362C265.559 196.069 265.761 203.375 266.254 204.601C266.747 205.827 266.987 207.028 266.254 206.787C265.521 206.547 263.334 201.188 263.334 201.188L263.575 204.601C263.575 204.601 255.295 194.362 254.322 192.656C253.349 190.95 255.75 187.056 255.75 187.056Z" fill="white" stroke="#263238" stroke-width="1.05093" stroke-linecap="round" stroke-linejoin="round"/>
<path d="M263.309 201.188L264.042 195.336" stroke="#263238" stroke-width="1.05093" stroke-linecap="round" stroke-linejoin="round"/>
<path d="M245.524 128.824C245.524 128.824 236.511 131.744 234.805 140.516C233.099 149.288 237.245 159.754 239.684 166.327C242.124 172.9 242.844 174.859 242.364 179.725C241.787 183.767 240.891 187.757 239.684 191.657C239.684 191.657 248.444 202.136 250.643 207.976C252.842 213.815 261.362 222.6 264.281 221.88C267.201 221.159 267.201 214.296 263.789 206.535C260.376 198.774 255.509 194.603 255.509 191.367C255.509 188.131 257.456 182.354 257.456 182.354C257.456 182.354 264.041 186.74 266.228 185.767C268.415 184.794 273.534 172.369 274.747 169.209C275.961 166.049 272.32 161.41 273.774 159.223C275.228 157.036 278.4 154.344 277.427 149.478C276.454 144.611 275 134.31 268.175 129.507C261.349 124.703 249.417 126.17 245.524 128.824Z" fill="white" stroke="#263238" stroke-width="1.05093" stroke-linecap="round" stroke-linejoin="round"/>
<path d="M246.992 200.215C246.992 200.215 256.977 217.506 260.63 226.278C264.283 235.051 265.686 249.41 264.283 254.529C262.88 259.648 257.218 287.393 257.963 295.204C258.709 303.016 259.657 322.216 259.657 322.216C259.657 322.216 252.351 323.48 235.06 320.257C225.162 318.524 215.455 315.836 206.076 312.23C206.076 312.23 226.047 256.69 226.047 254.984C226.047 253.277 227.311 238.666 222.394 229.704C217.477 220.742 213.622 211.679 217.035 208.279C220.448 204.879 237.739 190.254 237.739 190.254L246.992 200.215Z" fill="#F46036" stroke="#263238" stroke-width="1.05093" stroke-linecap="round" stroke-linejoin="round"/>
<path d="M268.175 129.582C261.362 124.703 249.417 126.17 245.524 128.849C245.524 128.849 236.511 131.769 234.805 140.541C233.099 149.313 237.245 159.779 239.684 166.352C240.544 168.703 241.201 170.447 241.656 171.964C241.985 171.943 242.307 171.857 242.604 171.711C247.23 169.525 245.524 162.952 251.376 159.779C256.129 157.251 271.057 147.999 276.441 144.611C275.278 139.568 273.167 133.147 268.175 129.582Z" fill="#263238" stroke="#263238" stroke-width="1.05093" stroke-linecap="round" stroke-linejoin="round"/>
<path d="M273.675 140.554C273.675 140.554 254.462 158.022 239.547 160.209" stroke="#6B6B6B" stroke-width="1.05093" stroke-linecap="round" stroke-linejoin="round"/>
<path d="M261.817 140.427C254.132 144.219 243.489 150.047 238.736 154.534" stroke="#6B6B6B" stroke-width="1.05093" stroke-linecap="round" stroke-linejoin="round"/>
<path d="M270.616 136.18C270.616 136.18 269.124 136.863 266.748 138.013" stroke="#6B6B6B" stroke-width="1.05093" stroke-linecap="round" stroke-linejoin="round"/>
<path d="M268.958 160.02L268.718 163.432C268.067 163.86 267.304 164.088 266.525 164.088C265.746 164.088 264.983 163.86 264.332 163.432" stroke="#263238" stroke-width="1.05093" stroke-linecap="round" stroke-linejoin="round"/>
<path d="M271.096 156.367C270.25 155.52 269.154 154.969 267.971 154.794C266.787 154.618 265.578 154.829 264.523 155.393" stroke="#263238" stroke-width="1.05093" stroke-linecap="round" stroke-linejoin="round"/>
<path d="M274.824 166.264C273.496 166.706 268.984 167.818 262.082 165.379C253.803 162.459 248.937 160.512 248.937 160.512C248.937 160.512 246.257 159.248 245.284 161.486C244.311 163.723 245.044 165.872 247.471 169.07C249.897 172.268 257.456 182.468 257.456 182.468C257.456 182.468 264.042 186.854 266.228 185.881C268.415 184.908 273.534 172.483 274.748 169.323C275.066 168.331 275.092 167.269 274.824 166.264ZM254.056 173.848C253.563 175.112 247.471 167.262 246.257 164.835C245.044 162.408 247.964 160.689 250.403 162.636L255.459 165.316C255.459 165.316 254.536 172.685 254.056 173.911V173.848Z" fill="#F46036" stroke="#263238" stroke-width="1.05093" stroke-linecap="round" stroke-linejoin="round"/>
<path d="M251.124 164.406C251.124 164.406 249.86 156.126 246.738 155.646C243.616 155.166 243.818 161.966 245.284 164.899C245.759 165.744 246.477 166.427 247.345 166.86C248.212 167.293 249.19 167.455 250.151 167.325" fill="white"/>
<path d="M251.124 164.406C251.124 164.406 249.86 156.126 246.738 155.646C243.616 155.166 243.818 161.966 245.284 164.899C245.759 165.744 246.477 166.427 247.345 166.86C248.212 167.293 249.19 167.455 250.151 167.325" stroke="#263238" stroke-width="1.05093" stroke-linecap="round" stroke-linejoin="round"/>
<path d="M239.432 183.176C239.432 183.176 246.018 191.455 247.016 192.921C248.015 194.388 255.295 203.88 255.295 203.88L249.936 212.64C249.936 212.64 249.443 212.4 248.963 210.213C248.482 208.026 237.271 193.895 237.031 193.162C236.501 192.334 235.844 191.596 235.084 190.975L239.432 183.176Z" fill="white" stroke="#263238" stroke-width="1.05093" stroke-linecap="round" stroke-linejoin="round"/>
<path d="M325.511 273.855C325.276 273.862 325.044 273.802 324.84 273.684C324.637 273.566 324.471 273.393 324.361 273.185L317.27 260.786C317.148 260.484 317.142 260.149 317.252 259.843C317.361 259.537 317.579 259.282 317.865 259.126C318.15 258.97 318.482 258.924 318.799 258.997C319.115 259.07 319.394 259.257 319.583 259.522L326.661 271.921C326.756 272.07 326.819 272.237 326.845 272.412C326.872 272.586 326.862 272.764 326.815 272.934C326.769 273.105 326.687 273.263 326.576 273.4C326.464 273.537 326.325 273.649 326.168 273.729C325.964 273.829 325.737 273.873 325.511 273.855Z" fill="white" stroke="#263238" stroke-width="1.05093" stroke-linecap="round" stroke-linejoin="round"/>
<path d="M228.296 199.962C228.296 199.962 215.024 208.747 213.861 210.883C212.698 213.019 239.268 264.856 241.429 271.113C243.591 277.369 244.728 282.489 245.474 282.918C246.22 283.348 310.203 280.049 310.203 280.049C310.203 280.049 319.216 279.986 321.364 278.456C322.877 277.162 324.071 275.535 324.853 273.704C324.853 273.704 327.28 273.388 327.217 271.441C327.154 269.495 327.368 268.509 326.395 268.534C325.422 268.559 318.811 266.36 316.094 266.689C313.376 267.017 305.615 274.108 305.615 274.108C305.615 274.108 280.891 270.531 272.536 268.622C264.181 266.714 258.544 265.425 258.544 265.425L247.332 221.361" fill="#F46036"/>
<path d="M228.296 199.962C228.296 199.962 215.024 208.747 213.861 210.883C212.698 213.019 239.268 264.856 241.429 271.113C243.591 277.369 244.728 282.489 245.474 282.918C246.22 283.348 310.203 280.049 310.203 280.049C310.203 280.049 319.216 279.986 321.364 278.456C322.877 277.162 324.071 275.535 324.853 273.704C324.853 273.704 327.28 273.388 327.217 271.441C327.154 269.495 327.368 268.509 326.395 268.534C325.422 268.559 318.811 266.36 316.094 266.689C313.376 267.017 305.615 274.108 305.615 274.108C305.615 274.108 280.891 270.531 272.536 268.622C264.181 266.714 258.544 265.425 258.544 265.425L247.332 221.361" stroke="#263238" stroke-width="1.05093" stroke-linecap="round" stroke-linejoin="round"/>
<path d="M263.41 282.349C282.572 281.49 310.178 280.049 310.178 280.049C310.178 280.049 319.19 279.986 321.339 278.456C322.852 277.162 324.046 275.535 324.828 273.704C324.828 273.704 327.255 273.388 327.192 271.441C327.128 269.495 327.343 268.509 326.37 268.534C325.397 268.559 318.786 266.36 316.068 266.688C313.351 267.017 305.59 274.108 305.59 274.108C305.59 274.108 280.866 270.531 272.511 268.622L265.382 266.992L263.41 282.349Z" fill="white" stroke="#263238" stroke-width="1.05093" stroke-linecap="round" stroke-linejoin="round"/>
<path d="M262.702 266.019L261.539 282.387L268.63 282.88L270.084 268.218L262.702 266.019Z" fill="white" stroke="#263238" stroke-width="1.05093" stroke-linecap="round" stroke-linejoin="round"/>
<path d="M67.4791 306.783C67.5423 306.783 68.7431 302.093 68.8063 301.727C69.2993 298.162 68.1617 291.008 64.5466 289.263C63.9383 288.989 63.279 288.846 62.6117 288.843C61.9444 288.841 61.284 288.979 60.6735 289.248C60.063 289.517 59.5161 289.912 59.0684 290.407C58.6206 290.902 58.2822 291.486 58.075 292.12C57.1017 294.787 58.3404 298.061 59.794 300.311C61.5004 303.016 67.4791 306.783 67.4791 306.783Z" fill="#263238"/>
<path d="M88.5366 281.212C84.5424 280.782 79.7897 286.268 78.3361 289.542C78.2097 289.82 76.7435 294.484 76.8193 294.484H76.8952C76.1494 295.343 75.3404 296.266 74.4936 297.303C72.9262 299.224 71.1819 301.411 69.4376 303.913C67.5276 306.589 65.7761 309.375 64.192 312.256C62.4035 315.487 60.906 318.871 59.7174 322.368V322.494C59.7174 321.319 59.7174 318.02 59.6542 317.767C59.1865 314.215 56.2035 307.655 52.2598 306.871C51.5997 306.765 50.9246 306.8 50.2789 306.974C49.6333 307.147 49.0317 307.456 48.5136 307.878C47.9955 308.301 47.5727 308.828 47.2729 309.426C46.9731 310.023 46.8031 310.678 46.7741 311.346C46.5339 314.177 48.5816 317.008 50.5661 318.791C52.816 320.8 59.0728 322.76 59.5784 322.911C58.4478 326.487 57.561 330.136 56.924 333.832C56.5448 335.981 56.2288 338.155 55.938 340.342C55.938 339.331 55.938 338.408 55.938 338.281C55.483 334.73 52.5 328.169 48.5437 327.386C47.8841 327.284 47.2105 327.322 46.5665 327.497C45.9225 327.672 45.3225 327.981 44.8054 328.403C44.2882 328.825 43.8654 329.35 43.5644 329.946C43.2634 330.542 43.0908 331.194 43.0579 331.86C42.8304 334.692 44.878 337.523 46.8499 339.305C48.8217 341.088 54.1811 342.895 55.5968 343.337C55.4957 344.184 55.3819 345.019 55.2808 345.865C54.8004 349.898 54.3328 353.917 53.7513 357.861C53.5491 359.239 53.3089 360.604 53.0561 361.969C53.0561 361.059 53.0561 360.3 53.0561 360.187C52.6011 356.622 49.618 350.075 45.6617 349.291C45.0029 349.187 44.3296 349.223 43.6856 349.397C43.0416 349.571 42.4414 349.878 41.924 350.299C41.4066 350.72 40.9835 351.245 40.6824 351.84C40.3812 352.435 40.2087 353.087 40.176 353.753C39.9485 356.584 41.9961 359.416 43.968 361.198C45.9398 362.98 50.7809 364.611 52.4621 365.154C52.1587 366.532 51.868 367.922 51.5267 369.249C51.2739 370.16 51.0843 371.044 50.7809 371.942C50.4776 372.839 50.1995 373.711 49.9214 374.584C49.3147 376.239 48.6574 377.958 48.076 379.564C47.6462 380.676 47.2164 381.738 46.812 382.8C47.0269 381.422 47.3934 378.717 47.4061 378.489C47.3425 375.327 46.4724 372.234 44.8781 369.502C44.8889 369.151 44.8678 368.8 44.8148 368.453C44.7317 367.791 44.51 367.153 44.1642 366.582C43.8183 366.012 43.3561 365.52 42.8075 365.139C42.259 364.759 41.6365 364.498 40.9805 364.375C40.3246 364.251 39.6499 364.267 39.0005 364.421C35.1073 365.445 32.6805 372.27 32.4656 375.797C32.4656 376.012 32.592 378.325 32.7057 379.779C32.5035 378.932 32.3265 378.11 32.1117 377.251C31.7072 375.532 31.2521 373.838 30.7592 372.005L29.9628 369.338C29.71 368.453 29.3309 367.543 29.0275 366.62C28.2565 364.522 27.3717 362.437 26.4995 360.3C28.0037 359.934 33.3251 358.581 35.4612 356.938C37.5974 355.295 39.8473 352.641 39.8221 349.797C39.8385 349.122 39.7107 348.451 39.4471 347.83C39.1835 347.208 38.7902 346.651 38.2936 346.193C37.797 345.736 37.2085 345.39 36.5674 345.179C35.9264 344.968 35.2476 344.896 34.5765 344.968C30.5822 345.398 27.1062 351.768 26.3857 355.282C26.3857 355.497 26.1077 358.088 26.0065 359.504C25.4251 358.24 24.8689 356.976 24.2496 355.712C22.48 352.185 20.546 348.596 18.688 344.968C18.1065 343.868 17.5377 342.769 16.9689 341.669C17.5124 341.543 23.8704 340.064 26.2593 338.231C28.3828 336.6 30.6454 333.933 30.6201 331.089C30.6382 330.422 30.5158 329.759 30.2607 329.143C30.0056 328.526 29.6236 327.971 29.1395 327.512C28.6554 327.053 28.0801 326.701 27.4511 326.479C26.822 326.257 26.1532 326.169 25.4883 326.223C21.494 326.653 18.0181 333.023 17.2976 336.537C17.2976 336.803 16.9057 340.519 16.8678 341.467C15.6038 339.04 14.3398 336.613 13.2528 334.173C11.7319 330.89 10.4231 327.512 9.33437 324.061C9.58717 323.998 16.2232 322.494 18.6753 320.611C20.8115 318.98 23.0614 316.3 23.0361 313.469C23.0562 312.802 22.9351 312.138 22.6807 311.52C22.4263 310.903 22.0443 310.346 21.5598 309.887C21.0753 309.427 20.4992 309.076 19.8693 308.854C19.2393 308.633 18.5697 308.547 17.9043 308.603C13.91 309.033 10.4467 315.403 9.71357 318.917C9.71357 319.145 9.41021 321.976 9.32173 323.328H9.09421C8.08884 319.816 7.40348 316.22 7.04653 312.584C6.81901 310.587 6.71789 308.666 6.66733 306.795C7.93133 306.644 13.7078 305.873 16.0968 304.432C18.4857 302.991 20.9252 300.64 21.1528 297.808C21.2455 297.148 21.1978 296.475 21.0127 295.834C20.8276 295.193 20.5093 294.598 20.0786 294.089C19.6478 293.579 19.1145 293.167 18.5133 292.877C17.9121 292.588 17.2566 292.429 16.5897 292.411C12.5702 292.411 8.42429 298.352 7.31197 301.765C7.31197 301.941 6.84429 303.901 6.57885 305.329C6.57885 304.482 6.57885 303.61 6.57885 302.801C6.57885 299.767 6.76845 296.987 6.95805 294.522C7.08445 293.119 7.22349 291.855 7.36253 290.73C8.52541 289.921 13.1643 286.647 14.6052 284.296C16.0462 281.945 17.1332 278.709 16.0968 276.067C15.8737 275.438 15.5204 274.862 15.0599 274.378C14.5995 273.894 14.0422 273.513 13.4243 273.259C12.8065 273.005 12.1421 272.884 11.4744 272.904C10.8067 272.924 10.1507 273.084 9.54925 273.375C5.97213 275.22 5.03677 282.413 5.63085 285.952C5.63085 286.255 7.02125 290.945 7.08445 290.907H7.16029C6.99597 292.044 6.84429 293.258 6.70525 294.598C6.46509 297.062 6.19965 299.843 6.13645 302.889C6.02114 306.177 6.09711 309.469 6.36397 312.749C6.65314 316.423 7.26646 320.065 8.19677 323.632V323.758C7.56477 322.76 5.66877 320.042 5.54237 319.852C3.19133 317.135 -2.93907 313.267 -6.64259 314.796C-7.24933 315.074 -7.7909 315.475 -8.23208 315.976C-8.67326 316.476 -9.00417 317.064 -9.20328 317.7C-9.40238 318.337 -9.46524 319.009 -9.38774 319.671C-9.31024 320.334 -9.09413 320.973 -8.75347 321.546C-7.38835 324.074 -4.11459 325.262 -1.46019 325.654C1.53549 326.084 7.83021 324.264 8.32317 324.112C9.34728 327.716 10.6142 331.246 12.1152 334.679C12.9747 336.689 13.91 338.673 14.8707 340.67C14.3019 339.824 13.7836 339.078 13.6952 338.977C11.3441 336.259 5.21373 332.404 1.51021 333.921C0.903077 334.199 0.361304 334.602 -0.0799561 335.104C-0.521216 335.605 -0.852103 336.194 -1.05115 336.832C-1.25019 337.469 -1.31295 338.142 -1.23535 338.805C-1.15774 339.469 -0.941502 340.109 -0.60067 340.683C0.777091 343.211 4.03821 344.399 6.69261 344.778C9.34701 345.158 14.7822 343.729 16.2105 343.325L17.3355 345.6C19.1557 349.228 21.0011 352.843 22.6822 356.445C23.2889 357.709 23.8198 358.973 24.376 360.237C23.8577 359.491 23.428 358.872 23.3521 358.784C21.0011 356.066 14.8707 352.198 11.1672 353.728C10.5604 354.005 10.0189 354.407 9.57768 354.907C9.1365 355.407 8.80559 355.995 8.60648 356.632C8.40737 357.268 8.34452 357.94 8.42202 358.602C8.49952 359.265 8.71563 359.904 9.05629 360.477C10.4214 363.005 13.6952 364.193 16.3496 364.585C19.004 364.977 23.9336 363.663 25.6021 363.195C26.1329 364.459 26.6512 365.837 27.0936 367.139C27.3717 368.023 27.7129 368.87 27.9531 369.78C28.1933 370.69 28.446 371.575 28.6988 372.46C29.1033 374.179 29.5457 375.949 29.9628 377.63C30.2283 378.805 30.4432 379.918 30.6833 381.043C30.1019 379.779 28.9137 377.314 28.7873 377.124C26.8787 374.078 21.4056 369.338 17.5124 370.324C16.8746 370.507 16.2821 370.821 15.7731 371.246C15.264 371.672 14.8497 372.199 14.5568 372.795C14.2639 373.39 14.0989 374.04 14.0724 374.703C14.0459 375.366 14.1585 376.027 14.403 376.644C15.3763 379.311 18.4225 381.03 20.9884 381.814C23.8072 382.673 30.064 381.889 30.835 381.814C31.2142 383.684 31.5555 385.505 31.8588 387.224C32.908 393.19 33.5652 398.208 33.9697 401.709C33.9697 402.341 34.0961 402.897 34.1593 403.415H22.0502L25.64 473.428H47.9117L51.552 403.542H40.176L40.4288 403.024C41.9708 399.813 44.1196 395.174 46.4328 389.511C47.1659 387.729 47.9117 385.795 48.6701 383.811C49.4285 383.975 55.6094 385.226 58.4913 384.582C61.1078 383.988 64.2804 382.509 65.4433 379.918C65.74 379.32 65.9074 378.666 65.9346 377.999C65.9619 377.333 65.8484 376.667 65.6016 376.047C65.3548 375.427 64.9801 374.866 64.502 374.401C64.024 373.935 63.4532 373.575 62.8269 373.345C59.0349 372.081 53.1952 376.391 51.0717 379.286C50.9453 379.45 49.8077 381.46 49.0745 382.724C49.3779 381.915 49.6813 381.131 49.9846 380.284C50.5913 378.628 51.1475 376.96 51.7542 375.165L52.5505 372.498C52.8413 371.626 53.0182 370.652 53.271 369.717C53.7893 367.543 54.2064 365.318 54.535 363.056C55.9886 363.587 61.171 365.394 63.8633 365.205C66.5556 365.015 69.8926 364.029 71.4473 361.653C71.8322 361.108 72.0976 360.487 72.2261 359.832C72.3545 359.177 72.3432 358.502 72.1929 357.852C72.0425 357.202 71.7565 356.59 71.3536 356.058C70.9507 355.526 70.4399 355.085 69.8547 354.764C66.2776 352.919 59.8817 356.306 57.3285 358.847C57.1768 358.998 55.5589 361.021 54.6867 362.146C54.9016 360.793 55.1164 359.441 55.2934 358.063C55.7864 354.069 56.1656 350.024 56.5574 345.992C56.6712 344.728 56.8102 343.464 56.9366 342.288C57.4549 342.478 63.5726 344.753 66.5809 344.551C69.248 344.361 72.6102 343.375 74.1649 340.999C74.55 340.453 74.8155 339.831 74.9441 339.175C75.0727 338.519 75.0615 337.844 74.9112 337.192C74.7609 336.541 74.4749 335.929 74.0718 335.396C73.6688 334.862 73.1578 334.42 72.5723 334.098C68.9952 332.265 62.5993 335.652 60.0461 338.193C59.8565 338.383 57.5181 341.29 56.9745 342.061C57.2653 339.343 57.5686 336.638 57.9857 333.984C58.5292 330.403 59.3018 326.861 60.2989 323.379C60.539 323.467 66.9222 325.907 69.9937 325.654C72.6734 325.465 76.023 324.479 77.5777 322.102C77.9601 321.556 78.2231 320.934 78.3496 320.279C78.4761 319.624 78.4632 318.95 78.3117 318.3C78.1603 317.65 77.8737 317.039 77.4707 316.508C77.0677 315.976 76.5572 315.535 75.9725 315.213C72.408 313.368 65.9995 316.768 63.4588 319.296C63.2945 319.461 61.5123 321.685 60.6907 322.76L60.4884 322.646C61.5918 319.156 63.0047 315.772 64.7102 312.534C65.6203 310.739 66.5936 309.083 67.5795 307.478C68.7171 308.047 73.8995 310.6 76.7561 310.701C79.6128 310.802 82.8739 310.208 84.6814 308.009C85.1226 307.507 85.4531 306.919 85.6516 306.281C85.85 305.644 85.9119 304.972 85.8332 304.309C85.7545 303.645 85.537 303.006 85.1948 302.433C84.8526 301.86 84.3934 301.365 83.8472 300.981C80.4976 298.756 73.7352 301.436 70.9544 303.673C70.8027 303.787 69.387 305.203 68.4264 306.201C68.8814 305.493 69.3364 304.748 69.7788 304.078C71.46 301.55 73.1537 299.325 74.6832 297.378C75.5553 296.279 76.3643 295.293 77.1227 294.383C78.5384 294.383 84.2264 294.193 86.7164 293.018C89.2065 291.842 91.9115 289.757 92.5056 286.976C92.65 286.335 92.6603 285.67 92.5357 285.025C92.4111 284.38 92.1543 283.767 91.7816 283.226C91.4088 282.685 90.9281 282.226 90.3697 281.88C89.8112 281.533 89.1871 281.306 88.5366 281.212ZM44.2966 388.589C41.8824 394.138 39.6577 398.701 38.0651 401.835C37.7491 402.467 37.4584 403.024 37.1803 403.542H36.9148C36.839 402.935 36.7505 402.278 36.6494 401.507C36.1564 397.968 35.3854 392.924 34.1972 386.92C33.8307 385.024 33.3883 383.002 32.9332 380.929C34.8164 380.176 36.6525 379.311 38.4317 378.338C40.492 380.575 45.7629 383.179 46.4454 383.507C45.6996 385.277 44.9918 386.983 44.284 388.589H44.2966Z" fill="#263238"/>
<path d="M-3.88675 305.228C-1.00483 306.492 6.06093 306.328 6.06093 306.328C6.06093 306.328 4.54413 301.714 4.41773 301.436C2.86301 298.187 -2.02867 292.841 -6.01027 293.384C-6.66781 293.494 -7.29482 293.742 -7.85054 294.11C-8.40627 294.478 -8.87829 294.959 -9.23592 295.522C-9.59355 296.085 -9.82879 296.716 -9.92637 297.376C-10.0239 298.035 -9.98166 298.708 -9.80227 299.35C-9.11971 302.106 -6.33891 304.153 -3.88675 305.228Z" fill="#263238"/>
</g>
</svg>
